# xmcd
#
# Track frame offsets:
# 150
# 11441
# 21473
# 33211
# 44671
# 55088
# 66238
# 74967
# 85782
# 97314
# 108805
# 118944
# 133282
# 146305
# 157567
# 167883
# 180787
# 192823
# 202663
# 214299
# 225963
# 235466
# 246344
# 256989
# 269174
#
# Disc length: 3744 seconds
#
#
# Revision: 0
# Processed by: cddbd v1.5.2PL0 Copyright (c) Steve Scherf et al.
# Submitted via: FreeRIP 2.945 
#
DISCID=680e9e19
DTITLE=Ken Griffin - Lo mejor
DYEAR=2000
DGENRE=Blues
TTITLE0=Oh
TTITLE1=Abril en portugal
TTITLE2=Luces en el puerto
TTITLE3=Tenias que ser tu
TTITLE4=Aquellos ojos verdes
TTITLE5=Hi lili hi lo
TTITLE6=El barrilito
TTITLE7=Rosa de mexicali
TTITLE8=La paloma
TTITLE9=Quiereme mucho
TTITLE10=Dulce georgia
TTITLE11=Jornada sentimental
TTITLE12=La calle doce
TTITLE13=El choclo
TTITLE14=Siboney
TTITLE15=Celos
TTITLE16=San Luis blues
TTITLE17=Marea baja
TTITLE18=Tu, tu, tu
TTITLE19=No otro amor
TTITLE20=Pretendiendo
TTITLE21=Llorando en la capilla
TTITLE22=Hasta que vuelva a bailar contigo
TTITLE23=El sheik de arabia
TTITLE24=Las golondrinas
EXTD=
EXTT0=
EXTT1=
EXTT2=
EXTT3=
EXTT4=
EXTT5=
EXTT6=
EXTT7=
EXTT8=
EXTT9=
EXTT10=
EXTT11=
EXTT12=
EXTT13=
EXTT14=
EXTT15=
EXTT16=
EXTT17=
EXTT18=
EXTT19=
EXTT20=
EXTT21=
EXTT22=
EXTT23=
EXTT24=
PLAYORDER=
